<?xml version="1.0" encoding="iso-8859-1"?>
<!-- Generator: Adobe Illustrator 19.0.0, SVG Export Plug-In . SVG Version: 6.00 Build 0)  -->
<svg version="1.1" id="Capa_1" xmlns="http://www.w3.org/2000/svg" xmlns:xlink="http://www.w3.org/1999/xlink" x="0px" y="0px"
	 viewBox="0 0 512.046 512.046" style="enable-background:new 0 0 512.046 512.046;" xml:space="preserve">
<g transform="translate(0 -1)">
	<g>
		<g>
			<path d="M508.58,474.529L443.415,362.84c36.468-34.459,45.195-89.14,21.264-133.238s-74.532-66.584-123.299-54.789V60.779
				c-0.011-9.421-7.646-17.056-17.067-17.067h-96.241c-3.025-5.262-8.624-8.513-14.693-8.533h-8.533
				c0.012-17.422-13.092-32.06-30.409-33.971c-17.317-1.91-33.296,9.519-37.083,26.525c-0.509,2.45-0.771,4.944-0.784,7.446h-8.525
				c-6.069,0.02-11.668,3.272-14.693,8.533H17.113C7.692,43.723,0.057,51.358,0.047,60.779v435.2
				c0.011,9.421,7.645,17.056,17.067,17.067h307.2c9.421-0.011,17.056-7.645,17.067-17.067V390.478
				c19.079,4.652,39.06,4.061,57.831-1.709l65.085,111.564c4.594,7.878,13.03,12.719,22.15,12.713
				c4.546-0.024,9.007-1.225,12.95-3.487C511.495,502.338,515.58,486.756,508.58,474.529z M230.447,60.779h93.867v119.492
				c-5.942,2.512-11.652,5.539-17.067,9.046V94.912c-0.011-9.421-7.645-17.056-17.067-17.067h-59.733V60.779z M128.047,52.246h18.6
				c2.82,0.001,5.458-1.391,7.049-3.719s1.928-5.292,0.901-7.919c-1.072-2.987-1.263-6.22-0.55-9.313
				c1.964-8.464,9.968-14.107,18.6-13.113c8.632,0.994,15.144,8.307,15.134,16.996c0.017,1.867-0.311,3.722-0.967,5.471
				c-1.009,2.624-0.66,5.577,0.932,7.894c1.592,2.317,4.223,3.702,7.035,3.702l18.6,0.025v34.108h-85.333V52.246z M128.047,103.446
				h85.333c6.069-0.02,11.668-3.272,14.693-8.533h62.107v107.869c-21.802,20.846-34.133,49.7-34.133,79.864
				c0,30.164,12.332,59.018,34.133,79.864v99.336H51.247V94.912h62.107C116.379,100.174,121.977,103.426,128.047,103.446z
				 M324.313,495.979h-307.2v-435.2h93.867v17.067H51.247c-9.421,0.011-17.056,7.646-17.067,17.067v366.933
				c0.011,9.421,7.645,17.056,17.067,17.067H290.18c9.421-0.011,17.056-7.646,17.067-17.067v-85.871
				c5.414,3.507,11.125,6.534,17.067,9.046V495.979z M366.98,376.512c-51.841,0-93.867-42.026-93.867-93.867
				c0-51.841,42.026-93.867,93.867-93.867c51.817,0.059,93.808,42.05,93.867,93.867C460.847,334.487,418.821,376.512,366.98,376.512
				z M493.906,491.657c-1.507,2.674-4.33,4.336-7.399,4.358s-5.915-1.601-7.46-4.253L415.234,382.38
				c5.153-2.477,10.108-5.349,14.819-8.59l63.752,109.28C495.375,485.708,495.414,488.984,493.906,491.657z"/>
			<path d="M170.713,274.112c42.415,0,76.8-34.385,76.8-76.8s-34.385-76.8-76.8-76.8s-76.8,34.385-76.8,76.8
				C93.961,239.708,128.318,274.064,170.713,274.112z M196.313,251.2c-16.177,7.795-35.023,7.795-51.2,0v0v-7.637
				c1.519-12.688,12.878-21.85,25.6-20.65c6.797-0.121,13.405,2.235,18.592,6.629c4.323,3.384,6.896,8.532,7.008,14.021V251.2z
				 M153.647,188.779c0-9.426,7.641-17.067,17.067-17.067s17.067,7.641,17.067,17.067s-7.641,17.067-17.067,17.067
				C161.292,205.835,153.657,198.2,153.647,188.779z M115.519,174.448c9.242-22.326,31.03-36.881,55.194-36.869
				c24.165-0.012,45.954,14.543,55.195,36.871c9.241,22.328,4.112,48.025-12.993,65.094c-1.103-8.97-5.579-17.183-12.518-22.973
				c-1.691-1.432-3.493-2.726-5.391-3.869c13.202-13.369,13.119-34.893-0.186-48.16c-13.305-13.266-34.83-13.287-48.16-0.045
				s-13.454,34.766-0.277,48.159c-9.752,5.76-16.336,15.663-17.875,26.884C111.405,222.47,106.278,196.774,115.519,174.448z"/>
			<path d="M187.78,308.246h-34.133c-4.713,0-8.533,3.82-8.533,8.533s3.821,8.533,8.533,8.533h34.133
				c4.713,0,8.533-3.82,8.533-8.533S192.493,308.246,187.78,308.246z"/>
			<path d="M93.913,359.446h85.333c4.713,0,8.533-3.82,8.533-8.533s-3.82-8.533-8.533-8.533H93.913c-4.713,0-8.533,3.82-8.533,8.533
				S89.2,359.446,93.913,359.446z"/>
			<path d="M213.38,342.379c-4.713,0-8.533,3.82-8.533,8.533s3.821,8.533,8.533,8.533h34.133c4.713,0,8.533-3.82,8.533-8.533
				s-3.82-8.533-8.533-8.533H213.38z"/>
			<path d="M93.913,427.712h85.333c4.713,0,8.533-3.82,8.533-8.533s-3.82-8.533-8.533-8.533H93.913c-4.713,0-8.533,3.82-8.533,8.533
				S89.2,427.712,93.913,427.712z"/>
			<path d="M247.513,410.646H213.38c-4.713,0-8.533,3.82-8.533,8.533s3.821,8.533,8.533,8.533h34.133
				c4.713,0,8.533-3.82,8.533-8.533S252.226,410.646,247.513,410.646z"/>
			<path d="M247.513,376.512H162.18c-4.713,0-8.533,3.82-8.533,8.533s3.82,8.533,8.533,8.533h85.333c4.713,0,8.533-3.82,8.533-8.533
				S252.226,376.512,247.513,376.512z"/>
			<path d="M93.913,393.579h34.133c4.713,0,8.533-3.82,8.533-8.533s-3.82-8.533-8.533-8.533H93.913c-4.713,0-8.533,3.82-8.533,8.533
				S89.2,393.579,93.913,393.579z"/>
			<path d="M366.98,205.846c-42.415,0-76.8,34.385-76.8,76.8c0.048,42.396,34.404,76.752,76.8,76.8c42.415,0,76.8-34.385,76.8-76.8
				S409.395,205.846,366.98,205.846z M366.98,342.379c-32.99,0-59.733-26.744-59.733-59.733
				c0.038-32.974,26.759-59.695,59.733-59.733c32.99,0,59.733,26.744,59.733,59.733S399.97,342.379,366.98,342.379z"/>
		</g>
	</g>
</g>
<g>
</g>
<g>
</g>
<g>
</g>
<g>
</g>
<g>
</g>
<g>
</g>
<g>
</g>
<g>
</g>
<g>
</g>
<g>
</g>
<g>
</g>
<g>
</g>
<g>
</g>
<g>
</g>
<g>
</g>
</svg>
