<?xml version="1.0" encoding="iso-8859-1"?>
<!-- Generator: Adobe Illustrator 19.0.0, SVG Export Plug-In . SVG Version: 6.00 Build 0)  -->
<svg version="1.1" id="Capa_1" xmlns="http://www.w3.org/2000/svg" xmlns:xlink="http://www.w3.org/1999/xlink" x="0px" y="0px"
	 viewBox="0 0 512.044 512.044" style="enable-background:new 0 0 512.044 512.044;" xml:space="preserve">
<g transform="translate(0 -1)">
	<g>
		<g>
			<path d="M501.396,77.937C481.07,31.223,434.965,1.02,384.021,1.044c-36.341,0.022-70.949,15.543-95.135,42.667h-60.839
				c-3.024-5.262-8.623-8.514-14.692-8.533h-8.533c0.009-9.914-4.293-19.343-11.787-25.833c-9.088-7.876-21.649-10.392-33.07-6.623
				c-11.42,3.769-20.016,13.268-22.63,25.006c-0.515,2.45-0.777,4.946-0.783,7.45h-8.529c-6.069,0.02-11.668,3.272-14.692,8.533
				H17.087C7.666,43.721,0.031,51.356,0.021,60.777v435.2c0.011,9.421,7.645,17.056,17.067,17.067h307.2
				c9.421-0.011,17.056-7.645,17.067-17.067V249.576c48.02,17.014,101.557,3.917,136.3-33.343S521.722,124.651,501.396,77.937z
				 M230.421,60.777h45.513c-3.478,5.449-6.538,11.154-9.151,17.067h-36.361V60.777z M128.021,52.244h18.6
				c2.822,0,5.461-1.395,7.051-3.726c1.59-2.331,1.925-5.297,0.895-7.924c-1.071-2.983-1.261-6.212-0.546-9.3
				c1.962-8.467,9.966-14.112,18.601-13.118c8.634,0.994,15.147,8.311,15.133,17.002c0.014,1.862-0.311,3.712-0.958,5.458
				c-1.014,2.624-0.67,5.58,0.921,7.901c1.591,2.321,4.224,3.708,7.037,3.708l18.6,0.025v34.108h-85.333V52.244z M128.021,103.444
				h85.333c6.069-0.02,11.668-3.272,14.692-8.533h32.736c-12.042,42.651-0.901,88.494,29.372,120.862v246.071H51.221V94.911h62.108
				C116.353,100.172,121.952,103.424,128.021,103.444z M324.287,495.977h-307.2v-435.2h93.867v17.067H51.221
				c-9.421,0.011-17.056,7.646-17.067,17.067v366.933c0.011,9.421,7.645,17.056,17.067,17.067h238.933
				c9.421-0.011,17.056-7.646,17.067-17.067V231.201c5.39,4.1,11.097,7.767,17.067,10.965V495.977z M384.021,239.977
				c-61.267,0-110.933-49.667-110.933-110.933c0.071-61.237,49.696-110.863,110.933-110.933
				c61.267,0,110.933,49.667,110.933,110.933S445.288,239.977,384.021,239.977z"/>
			<path d="M170.687,274.111c42.415,0,76.8-34.385,76.8-76.8s-34.385-76.8-76.8-76.8s-76.8,34.385-76.8,76.8
				C93.935,239.706,128.292,274.063,170.687,274.111z M196.287,251.198c-16.177,7.795-35.023,7.795-51.2,0v0v-7.637
				c1.521-12.687,12.879-21.849,25.6-20.65c6.797-0.124,13.405,2.234,18.587,6.633c4.326,3.381,6.901,8.528,7.013,14.017V251.198z
				 M153.621,188.777c0-9.426,7.641-17.067,17.067-17.067s17.067,7.641,17.067,17.067s-7.641,17.067-17.067,17.067
				C161.266,205.833,153.631,198.198,153.621,188.777z M115.494,174.446c9.242-22.326,31.03-36.881,55.194-36.869
				c24.165-0.012,45.954,14.543,55.195,36.871c9.241,22.328,4.112,48.025-12.993,65.094c-1.105-8.969-5.58-17.182-12.518-22.973
				c-1.689-1.433-3.491-2.728-5.388-3.872c13.2-13.37,13.115-34.894-0.191-48.159s-34.83-13.284-48.159-0.043
				c-13.329,13.241-13.453,34.765-0.276,48.159c-9.753,5.76-16.337,15.663-17.876,26.884
				C111.378,222.468,106.252,196.772,115.494,174.446z"/>
			<path d="M187.754,308.244h-34.133c-4.713,0-8.533,3.82-8.533,8.533s3.821,8.533,8.533,8.533h34.133
				c4.713,0,8.533-3.82,8.533-8.533S192.467,308.244,187.754,308.244z"/>
			<path d="M93.887,359.444h85.333c4.713,0,8.533-3.82,8.533-8.533s-3.82-8.533-8.533-8.533H93.887c-4.713,0-8.533,3.82-8.533,8.533
				S89.175,359.444,93.887,359.444z"/>
			<path d="M213.354,342.377c-4.713,0-8.533,3.82-8.533,8.533s3.821,8.533,8.533,8.533h34.133c4.713,0,8.533-3.82,8.533-8.533
				s-3.82-8.533-8.533-8.533H213.354z"/>
			<path d="M93.887,427.711h85.333c4.713,0,8.533-3.82,8.533-8.533s-3.82-8.533-8.533-8.533H93.887c-4.713,0-8.533,3.82-8.533,8.533
				S89.175,427.711,93.887,427.711z"/>
			<path d="M247.487,410.644h-34.133c-4.713,0-8.533,3.82-8.533,8.533s3.821,8.533,8.533,8.533h34.133
				c4.713,0,8.533-3.82,8.533-8.533S252.2,410.644,247.487,410.644z"/>
			<path d="M247.487,376.511h-85.333c-4.713,0-8.533,3.82-8.533,8.533s3.82,8.533,8.533,8.533h85.333
				c4.713,0,8.533-3.82,8.533-8.533S252.2,376.511,247.487,376.511z"/>
			<path d="M93.887,393.577h34.133c4.713,0,8.533-3.82,8.533-8.533s-3.82-8.533-8.533-8.533H93.887c-4.713,0-8.533,3.82-8.533,8.533
				S89.175,393.577,93.887,393.577z"/>
			<path d="M439.454,61.902c-4.092-2.338-9.304-0.917-11.642,3.175l-63.471,111.075l-26.4-19.8
				c-2.438-1.829-5.667-2.219-8.471-1.022c-2.804,1.197-4.756,3.799-5.121,6.825c-0.365,3.026,0.912,6.018,3.35,7.847l34.133,25.6
				c1.478,1.108,3.274,1.707,5.121,1.708c0.581,0,1.16-0.059,1.729-0.175c2.396-0.498,4.464-2,5.679-4.125l68.267-119.467
				C444.967,69.452,443.546,64.24,439.454,61.902z"/>
		</g>
	</g>
</g>
<g>
</g>
<g>
</g>
<g>
</g>
<g>
</g>
<g>
</g>
<g>
</g>
<g>
</g>
<g>
</g>
<g>
</g>
<g>
</g>
<g>
</g>
<g>
</g>
<g>
</g>
<g>
</g>
<g>
</g>
</svg>
