<svg xmlns="http://www.w3.org/2000/svg" width="59.55" height="45.75" viewBox="0 0 59.55 45.75"><title>quote</title><path d="M27,0,14.65,20.4a11.67,11.67,0,0,1,8.4,4.05,12.12,12.12,0,0,1,3.45,8.7,12,12,0,0,1-3.75,9,12.91,12.91,0,0,1-9.3,3.6A13.43,13.43,0,0,1,4,42.15,12.62,12.62,0,0,1,.1,32.4a19.71,19.71,0,0,1,1.65-7.35A59.88,59.88,0,0,1,7,15.45q3.75-5.7,9.6-13.8l1-1.65Zm32.7,0L47.2,20.4a11.81,11.81,0,0,1,8.55,4.05,12.42,12.42,0,0,1,3.3,8.7,12,12,0,0,1-3.75,9,12.4,12.4,0,0,1-9.15,3.6,13.63,13.63,0,0,1-9.6-3.6q-3.75-3.6-3.75-9.75a19.71,19.71,0,0,1,1.65-7.35,59.88,59.88,0,0,1,5.25-9.6q3.6-5.7,9.45-13.8L50.35,0Z" transform="translate(-0.1 0)" fill="#1cdeb0"/></svg>