<svg xmlns="http://www.w3.org/2000/svg" width="280.9" height="280.9" viewBox="0 0 280.9 280.9"><title>arrow-right-up-1</title><path d="M120.68,392.85a16,16,0,0,1,0-22.62l248.9-248.91A16,16,0,0,1,392.21,144L143.3,392.85A16,16,0,0,1,120.68,392.85Z" transform="translate(-115.99 -116.64)" fill-rule="evenodd"/><path d="M161.25,132.64a16,16,0,0,1,16-16H380.89a16,16,0,0,1,16,16V336.28a16,16,0,0,1-32,0V148.64H177.25A16,16,0,0,1,161.25,132.64Z" transform="translate(-115.99 -116.64)" fill-rule="evenodd"/></svg>