<svg width="185" height="56" viewBox="0 0 185 56" fill="none" xmlns="http://www.w3.org/2000/svg">
<g clip-path="url(#clip0_2359_734)">
<path d="M50.6647 11.5712C43.1189 25.462 35.5595 39.3392 28 53.23C26.4172 50.3236 24.8343 47.4172 23.2515 44.5107C21.6413 41.5497 20.0175 38.5751 18.4074 35.614L49.3957 9.94737C44.2651 3.8616 36.5828 0 28 0C19.4444 0 11.7758 3.83431 6.64522 9.89279C13.4542 15.3645 20.2495 20.8226 27.0585 26.2943L22.7329 29.883L17.6023 34.1267C13.5088 26.6082 9.41521 19.0897 5.32164 11.5712C1.97856 16.1832 0 21.8596 0 28C0 43.46 12.54 56 28 56C43.46 56 56 43.46 56 28C56 21.8596 54.0214 16.1832 50.6647 11.5712ZM21.191 16.2242C21.191 12.4581 24.2339 9.41521 28 9.41521C29.4873 9.41521 30.8655 9.89279 31.9844 10.7115C33.076 11.5029 33.9357 12.6218 34.3996 13.9181C34.6589 14.6413 34.7953 15.4191 34.7953 16.2242C34.7953 19.9903 31.7524 23.0331 27.9864 23.0331C24.2339 23.0331 21.191 19.9766 21.191 16.2242Z" fill="#1CDEB0"/>
</g>
<path d="M68.28 38V15.8H71.79V25.16H81.72V15.8H85.23V38H81.72V28.28H71.79V38H68.28ZM93.9839 38.3C92.3839 38.3 91.1339 37.8 90.2339 36.8C89.3339 35.8 88.8839 34.47 88.8839 32.81V22.1H92.3039V32.39C92.3039 33.35 92.5539 34.1 93.0539 34.64C93.5739 35.16 94.2739 35.42 95.1539 35.42C96.0139 35.42 96.7039 35.2 97.2239 34.76C97.7439 34.32 98.1139 33.76 98.3339 33.08C98.5739 32.38 98.6939 31.66 98.6939 30.92V22.1H102.114V38H98.6939V35.72H98.5139C98.3539 36.02 98.0939 36.38 97.7339 36.8C97.3939 37.2 96.9139 37.55 96.2939 37.85C95.6939 38.15 94.9239 38.3 93.9839 38.3ZM105.481 38V22.1H108.901V24.35H109.021C109.201 24.03 109.461 23.67 109.801 23.27C110.161 22.87 110.631 22.53 111.211 22.25C111.791 21.95 112.521 21.8 113.401 21.8C114.581 21.8 115.561 22.08 116.341 22.64C117.121 23.2 117.701 23.94 118.081 24.86H118.141C118.561 24.06 119.171 23.35 119.971 22.73C120.771 22.11 121.831 21.8 123.151 21.8C124.271 21.8 125.221 22.07 126.001 22.61C126.781 23.13 127.361 23.84 127.741 24.74C128.141 25.62 128.341 26.62 128.341 27.74V38H124.921V28.22C124.921 27.18 124.671 26.33 124.171 25.67C123.671 25.01 122.931 24.68 121.951 24.68C121.151 24.68 120.501 24.9 120.001 25.34C119.521 25.78 119.171 26.33 118.951 26.99C118.731 27.63 118.621 28.28 118.621 28.94V38H115.201V28.22C115.201 27.18 114.951 26.33 114.451 25.67C113.951 25.01 113.211 24.68 112.231 24.68C111.431 24.68 110.781 24.9 110.281 25.34C109.801 25.78 109.451 26.33 109.231 26.99C109.011 27.63 108.901 28.28 108.901 28.94V38H105.481ZM138.499 21.8C139.499 21.8 140.329 21.96 140.989 22.28C141.669 22.6 142.209 22.97 142.609 23.39C143.009 23.81 143.299 24.17 143.479 24.47H143.659V22.1H147.079V38H143.659V35.63H143.479C143.299 35.93 143.009 36.29 142.609 36.71C142.209 37.13 141.669 37.5 140.989 37.82C140.329 38.14 139.499 38.3 138.499 38.3C137.299 38.3 136.249 38.07 135.349 37.61C134.469 37.13 133.729 36.5 133.129 35.72C132.529 34.92 132.079 34.03 131.779 33.05C131.499 32.07 131.359 31.07 131.359 30.05C131.359 29.03 131.499 28.03 131.779 27.05C132.079 26.07 132.529 25.19 133.129 24.41C133.729 23.61 134.469 22.98 135.349 22.52C136.249 22.04 137.299 21.8 138.499 21.8ZM139.249 24.65C138.269 24.65 137.449 24.92 136.789 25.46C136.129 25.98 135.629 26.65 135.289 27.47C134.969 28.29 134.809 29.15 134.809 30.05C134.809 30.95 134.969 31.81 135.289 32.63C135.629 33.45 136.129 34.13 136.789 34.67C137.449 35.19 138.269 35.45 139.249 35.45C140.229 35.45 141.039 35.19 141.679 34.67C142.339 34.13 142.829 33.45 143.149 32.63C143.489 31.81 143.659 30.95 143.659 30.05C143.659 29.15 143.489 28.29 143.149 27.47C142.829 26.65 142.339 25.98 141.679 25.46C141.039 24.92 140.229 24.65 139.249 24.65ZM158.222 38.3C156.882 38.3 155.712 38.07 154.712 37.61C153.712 37.13 152.882 36.5 152.222 35.72C151.562 34.92 151.062 34.03 150.722 33.05C150.402 32.07 150.242 31.07 150.242 30.05C150.242 29.03 150.402 28.03 150.722 27.05C151.062 26.07 151.562 25.19 152.222 24.41C152.882 23.61 153.712 22.98 154.712 22.52C155.712 22.04 156.882 21.8 158.222 21.8C159.542 21.8 160.632 22 161.492 22.4C162.372 22.78 163.072 23.26 163.592 23.84C164.112 24.42 164.502 25 164.762 25.58C165.022 26.16 165.182 26.65 165.242 27.05C165.322 27.45 165.362 27.65 165.362 27.65H162.122C162.122 27.65 162.072 27.5 161.972 27.2C161.892 26.9 161.722 26.55 161.462 26.15C161.202 25.75 160.812 25.4 160.292 25.1C159.792 24.8 159.112 24.65 158.252 24.65C157.232 24.65 156.382 24.91 155.702 25.43C155.022 25.93 154.502 26.59 154.142 27.41C153.802 28.23 153.632 29.11 153.632 30.05C153.632 30.99 153.802 31.87 154.142 32.69C154.502 33.51 155.022 34.18 155.702 34.7C156.382 35.2 157.232 35.45 158.252 35.45C159.112 35.45 159.792 35.3 160.292 35C160.812 34.7 161.202 34.35 161.462 33.95C161.722 33.55 161.892 33.2 161.972 32.9C162.072 32.6 162.122 32.45 162.122 32.45H165.362C165.362 32.45 165.322 32.65 165.242 33.05C165.182 33.45 165.022 33.94 164.762 34.52C164.502 35.1 164.112 35.68 163.592 36.26C163.072 36.84 162.372 37.33 161.492 37.73C160.632 38.11 159.542 38.3 158.222 38.3ZM175.868 38.3C174.528 38.3 173.368 38.07 172.388 37.61C171.428 37.13 170.628 36.5 169.988 35.72C169.368 34.92 168.898 34.03 168.578 33.05C168.278 32.07 168.128 31.07 168.128 30.05C168.128 29.05 168.278 28.06 168.578 27.08C168.878 26.1 169.338 25.21 169.958 24.41C170.578 23.61 171.368 22.98 172.328 22.52C173.288 22.04 174.418 21.8 175.718 21.8C177.118 21.8 178.348 22.12 179.408 22.76C180.488 23.38 181.328 24.31 181.928 25.55C182.548 26.77 182.858 28.29 182.858 30.11V31.04H171.578C171.658 32.26 172.068 33.31 172.808 34.19C173.548 35.07 174.568 35.51 175.868 35.51C176.608 35.51 177.218 35.39 177.698 35.15C178.178 34.89 178.548 34.6 178.808 34.28C179.068 33.96 179.248 33.68 179.348 33.44C179.468 33.2 179.528 33.08 179.528 33.08H182.708C182.708 33.08 182.658 33.26 182.558 33.62C182.458 33.96 182.268 34.39 181.988 34.91C181.728 35.43 181.348 35.95 180.848 36.47C180.348 36.99 179.688 37.43 178.868 37.79C178.048 38.13 177.048 38.3 175.868 38.3ZM171.608 28.64H179.558C179.478 27.24 179.058 26.21 178.298 25.55C177.558 24.89 176.688 24.56 175.688 24.56C174.568 24.56 173.638 24.93 172.898 25.67C172.158 26.39 171.728 27.38 171.608 28.64Z" fill="#032024"/>
<defs>
<clipPath id="clip0_2359_734">
<rect width="56" height="56" fill="white"/>
</clipPath>
</defs>
</svg>
