<svg xmlns="http://www.w3.org/2000/svg" width="512.04" height="511.86" viewBox="0 0 512.04 511.86"><title>Icon-02-secondary</title><path d="M499.54,439.07l-123-123a205.11,205.11,0,1,0-60.36,60.36l123,123a42.69,42.69,0,0,0,60.37-60.38ZM204.82,392.46c-103.68,0-187.73-84-187.73-187.73S101.19,17.11,204.82,17,392.55,101,392.55,204.73,308.5,392.46,204.82,392.46Zm282.65,94.91a26.28,26.28,0,0,1-36.23,0l-121-121a206.37,206.37,0,0,0,36.23-36.23l121,121A25.66,25.66,0,0,1,487.47,487.37Z" transform="translate(0 -0.09)" fill="#1cdeb0"/><path d="M204.82,34.06A170.67,170.67,0,1,0,375.49,204.73,170.67,170.67,0,0,0,204.82,34.06Zm0,324.26a153.6,153.6,0,1,1,153.6-153.6A153.6,153.6,0,0,1,204.82,358.32Z" transform="translate(0 -0.09)" fill="#1cdeb0"/><path d="M472.47,461.52a8.45,8.45,0,0,0-9.18,13.8,9,9,0,0,0,6.06,2.47,8.45,8.45,0,0,0,3.12-16.27Z" transform="translate(0 -0.09)" fill="#1cdeb0"/><path d="M298.69,136.46H264.55V119.39a17.08,17.08,0,0,0-17.06-17.07H162.15a17.08,17.08,0,0,0-17.06,17.07v17.07H111a17.08,17.08,0,0,0-17.06,17.06v41.64a26.44,26.44,0,0,0,8.53,19.42V273a17.09,17.09,0,0,0,17.07,17.07H290.15A17.09,17.09,0,0,0,307.22,273V214.58a26.44,26.44,0,0,0,8.53-19.42V153.52A17.08,17.08,0,0,0,298.69,136.46ZM162.15,119.39h85.34v17.07H162.15V119.39Zm128,153.6H119.49v-51.3c.35,0,.68.1,1,.1h75.77v8.53a8.53,8.53,0,1,0,17.06,0v-8.53h75.77c.35,0,.68-.09,1-.1V273Zm8.54-77.83a9.59,9.59,0,0,1-9.57,9.57H120.52a9.59,9.59,0,0,1-9.57-9.57V153.53H298.68v41.63Z" transform="translate(0 -0.09)" fill="#1cdeb0"/></svg>