<svg xmlns="http://www.w3.org/2000/svg" width="512" height="375.09" viewBox="0 0 512 375.09"><title>Icon-03-secondary</title><path d="M507.25,69.34a8.54,8.54,0,0,0-9,.87L359.56,176.29a17.08,17.08,0,0,0-4.25,22.25l-21.89,6-31.95-13.6a8.46,8.46,0,0,0-1.73-.53c-30.64-5.85-46.53-.21-54.74,6.08H157.79a17.11,17.11,0,0,0-5.36-20.16L13.72,70.21A8.54,8.54,0,0,0,0,77v204.8a8.51,8.51,0,0,0,4.3,7.4l52.82,30.18a16.93,16.93,0,0,0,8.43,2.24A17.12,17.12,0,0,0,77.23,317l9.9,7.91a25.39,25.39,0,0,0,17.91,41c.73.07,1.44.09,2.16.09a25.81,25.81,0,0,0,3.92-.33A29.55,29.55,0,0,0,118,382.14h0a29.66,29.66,0,0,0,20.32,10.46c.85.08,1.69.11,2.53.11.13,0,.25,0,.38,0a25.15,25.15,0,0,0,5.88,15.11,25.55,25.55,0,0,0,19.5,9,25.13,25.13,0,0,0,8.75-1.58,25.19,25.19,0,0,0,22.28,18.32c.72.07,1.44.1,2.16.1a24.81,24.81,0,0,0,16.06-5.79l13.39-10.34,31.51,21.06a29.71,29.71,0,0,0,16.45,5,30.13,30.13,0,0,0,6-.6A29.72,29.72,0,0,0,307,416.72a29.43,29.43,0,0,0,37.93-25.89,29.7,29.7,0,0,0,38.61-33.12,29.43,29.43,0,0,0,21.05-12.8,29.92,29.92,0,0,0,3.94-24.38l16.83-16.82,6.87,10.3a17.09,17.09,0,0,0,22.67,5.36L507.7,289.2a8.54,8.54,0,0,0,4.3-7.41V77A8.53,8.53,0,0,0,507.25,69.34ZM17.07,276.84V94.25l95.27,72.85L34.19,286.62Zm48.51,27.71L49,295.1l76.89-117.6,16.14,12.34Zm47,42.35a8,8,0,0,1-6.08,2,8.36,8.36,0,0,1-5-14.45l21.34-16.5a8.29,8.29,0,0,1,5.38-2c.24,0,.47,0,.7,0a8.36,8.36,0,0,1,5,14.45Zm27.21,28.7a12.8,12.8,0,0,1-7.51-22.28l26.88-20.78a12.8,12.8,0,0,1,21,10.82,12.56,12.56,0,0,1-4,8.27l-7.31,5.71-19.77,15.28A12.62,12.62,0,0,1,139.74,375.6Zm43.58,13.23v0l-11.39,8.89a8.35,8.35,0,0,1-11.77-1h0a8.25,8.25,0,0,1-2-6.08,8.15,8.15,0,0,1,2.66-5.47l19.95-15.57,5.88-4.54c.07-.06.11-.13.17-.19l6-4.7a8.27,8.27,0,0,1,5.38-2c.23,0,.47,0,.7,0a8.37,8.37,0,0,1,5,14.48l-20,15.58Zm43.16,9.27-21.34,16.5a7.9,7.9,0,0,1-6.08,1.95,8.37,8.37,0,0,1-5-14.45l.39-.3,21-16.2a8.35,8.35,0,0,1,11.08,12.5Zm163.88-62.64a12.89,12.89,0,0,1-17.59,3.67l-.07,0-56-38.74a8.53,8.53,0,1,0-9.7,14l54.23,37.49,0,0A12.74,12.74,0,0,1,356.65,375a12.59,12.59,0,0,1-9.5-1.81l-56.08-38.7a8.54,8.54,0,0,0-9.7,14.05l41,28.26h0A13.57,13.57,0,0,1,326,395.15a12.75,12.75,0,0,1-17.54,3.71L293.4,388.15h0L278,377.23a8.54,8.54,0,0,0-9.89,13.92l15.82,11.22a24,24,0,0,1,2.17,2,12.83,12.83,0,0,1-15.9,20l-28.1-18.78a25.27,25.27,0,0,0-18.53-38.86,25.18,25.18,0,0,0-23.2-25.48,25.82,25.82,0,0,0-3.29,0,29.64,29.64,0,0,0-44.72-24.74,25.37,25.37,0,0,0-40.31-11.9l-11.66,9L87.11,303l59.68-89.51h74.9a24.57,24.57,0,0,0-8,22.83A24.31,24.31,0,0,0,234,256.23a83.84,83.84,0,0,0,46.39-6.68l21.76,13.84a8.43,8.43,0,0,0,1.53.69l83.19,53.58a13.74,13.74,0,0,1,4.05,4.3c0,.1.09.2.14.3A12.9,12.9,0,0,1,390.36,335.46Zm8.73-29.64a32,32,0,0,0-2.87-2.45L311.83,249a8.9,8.9,0,0,0-1.21-.47l-25.1-16a8.56,8.56,0,0,0-8.83-.21,67.62,67.62,0,0,1-39.91,7,7.19,7.19,0,0,1-6.25-6,7.69,7.69,0,0,1,4-8.25,98.34,98.34,0,0,0,17.9-12,5.81,5.81,0,0,0,1.43-1.8,6.6,6.6,0,0,1,.9-.93c2.5-2.14,12.81-8.63,40.88-3.44l33.82,14.4a8.31,8.31,0,0,0,5.58.38l30.16-8.22,50.48,75.7Zm47.33-1.27-76.5-114.7,16.15-12.35L463,295.1Zm48.51-27.71-17.12,9.78L399.66,167.11l95.27-72.86V276.84Z" transform="translate(0 -68.45)" fill="#1cdeb0"/></svg>