<svg xmlns="http://www.w3.org/2000/svg" width="512" height="512.04" viewBox="0 0 512 512.04"><title>Icon-04-secondary</title><path d="M501.4,76.94A127.77,127.77,0,0,0,288.89,42.71H228.05a17,17,0,0,0-14.7-8.53h-8.53a34.15,34.15,0,0,0-67.49-7.45,37.24,37.24,0,0,0-.78,7.45H128a17,17,0,0,0-14.69,8.53H17.09A17.09,17.09,0,0,0,0,59.78V495A17.08,17.08,0,0,0,17.09,512h307.2A17.09,17.09,0,0,0,341.36,495V248.58a127.94,127.94,0,0,0,160-171.64Zm-271-17.16h45.51a129.44,129.44,0,0,0-9.15,17.06H230.42V59.78ZM128,51.24h18.6a8.54,8.54,0,0,0,7.95-11.65,16.56,16.56,0,0,1-.55-9.3,17.09,17.09,0,0,1,33.73,3.89,15.43,15.43,0,0,1-.95,5.46,8.53,8.53,0,0,0,8,11.61l18.6,0V85.38H128V51.24Zm0,51.2h85.33a17,17,0,0,0,14.7-8.53h32.73a126.59,126.59,0,0,0,29.37,120.86V460.84H51.22V93.91h62.11A17,17,0,0,0,128,102.44ZM324.29,495H17.09V59.78H111V76.84H51.22A17.1,17.1,0,0,0,34.15,93.91V460.84a17.1,17.1,0,0,0,17.07,17.07H290.15a17.09,17.09,0,0,0,17.07-17.07V230.2a128.38,128.38,0,0,0,17.07,11V495ZM384,239A110.94,110.94,0,1,1,495,128,110.93,110.93,0,0,1,384,239Z" transform="translate(-0.02 0)" fill="#1cdeb0"/><path d="M170.69,273.11a76.8,76.8,0,1,0-76.8-76.8A76.8,76.8,0,0,0,170.69,273.11Zm25.6-22.91a59,59,0,0,1-51.2,0h0v-7.64a23.55,23.55,0,0,1,25.6-20.65,28,28,0,0,1,18.58,6.63,18.27,18.27,0,0,1,7,14v7.64Zm-42.67-62.42a17.07,17.07,0,1,1,17.07,17.06A17.07,17.07,0,0,1,153.62,187.78Zm-38.13-14.33a59.73,59.73,0,1,1,97.4,65.09,35.55,35.55,0,0,0-12.52-23A41.06,41.06,0,0,0,195,211.7a34.14,34.14,0,1,0-48.62,0,37.07,37.07,0,0,0-17.88,26.89A59.71,59.71,0,0,1,115.49,173.45Z" transform="translate(-0.02 0)" fill="#1cdeb0"/><path d="M187.75,307.24H153.62a8.54,8.54,0,0,0,0,17.07h34.13a8.54,8.54,0,1,0,0-17.07Z" transform="translate(-0.02 0)" fill="#1cdeb0"/><path d="M93.89,358.44h85.33a8.53,8.53,0,1,0,0-17.06H93.89a8.53,8.53,0,1,0,0,17.06Z" transform="translate(-0.02 0)" fill="#1cdeb0"/><path d="M213.35,341.38a8.53,8.53,0,1,0,0,17.06h34.14a8.53,8.53,0,0,0,0-17.06Z" transform="translate(-0.02 0)" fill="#1cdeb0"/><path d="M93.89,426.71h85.33a8.53,8.53,0,1,0,0-17.06H93.89a8.53,8.53,0,1,0,0,17.06Z" transform="translate(-0.02 0)" fill="#1cdeb0"/><path d="M247.49,409.64H213.35a8.54,8.54,0,0,0,0,17.07h34.14a8.54,8.54,0,0,0,0-17.07Z" transform="translate(-0.02 0)" fill="#1cdeb0"/><path d="M247.49,375.51H162.15a8.54,8.54,0,0,0,0,17.07h85.34a8.54,8.54,0,0,0,0-17.07Z" transform="translate(-0.02 0)" fill="#1cdeb0"/><path d="M93.89,392.58H128a8.54,8.54,0,0,0,0-17.07H93.89a8.54,8.54,0,1,0,0,17.07Z" transform="translate(-0.02 0)" fill="#1cdeb0"/><path d="M439.45,60.9a8.53,8.53,0,0,0-11.64,3.18L364.34,175.15l-26.4-19.8A8.53,8.53,0,0,0,327.7,169l34.13,25.6a8.54,8.54,0,0,0,5.12,1.71,8.4,8.4,0,0,0,1.73-.18,8.51,8.51,0,0,0,5.68-4.12L442.63,72.54A8.52,8.52,0,0,0,439.45,60.9Z" transform="translate(-0.02 0)" fill="#1cdeb0"/></svg>